<svg xmlns="http://www.w3.org/2000/svg" width="48" height="48" id="office">
  <g transform="translate(0 -1004.362)">
    <circle cx="24" cy="1028.362" r="24" fill="#ffa40b" fill-rule="evenodd"></circle>
    <g transform="translate(9 -8)">
      <rect width="11" height="31" x="10" y="1" fill="#34485c" rx=".5" ry=".5" transform="translate(0 1020.362)"></rect>
      <path fill="#223443" d="M15.5 1027.362c-2.05 0-3.948.646-5.5 1.75v15.5a9.451 9.451 0 0 0 5.5 1.75c2.05 0 3.948-.646 5.5-1.75v-15.5a9.451 9.451 0 0 0-5.5-1.75Z"></path>
      <circle cx="16" cy="16" r="11" fill="#cad1d8" transform="translate(3.136 1024.499)scale(.77273)"></circle>
      <circle cx="16" cy="16" r="11" fill="#e9eded" transform="translate(4.59 1025.953)scale(.68182)"></circle>
      <rect width="1" height="4" x="1036.362" y="-18.714" fill="#34485c" rx=".5" ry=".5" transform="rotate(90)"></rect>
      <rect width="1" height="5.381" x="15" y="1032.362" fill="#34485c" rx=".5" ry=".538"></rect>
      <circle cx="16" cy="16" r="11" fill="#cad1d8" transform="translate(13.318 1034.68)scale(.13636)"></circle>
      <circle cx="16" cy="16" r="11" fill="#34485c" transform="translate(14.773 1036.135)scale(.04546)"></circle>
      <circle cx="15.5" cy="10.5" r=".5" fill="#34485c" transform="translate(0 1020.362)"></circle>
      <circle cx="15.5" cy="10.5" r=".5" fill="#34485c" transform="translate(0 1032.362)"></circle>
      <circle cx="15.5" cy="10.5" r=".5" fill="#34485c" transform="rotate(90 -494.681 526.681)"></circle>
      <circle cx="15.5" cy="10.5" r=".5" fill="#34485c" transform="rotate(90 -500.681 520.681)"></circle>
      <circle cx="15.5" cy="10.5" r=".5" fill="#34485c" transform="rotate(45 -1216.186 526.681)"></circle>
      <circle cx="15.5" cy="10.5" r=".5" fill="#34485c" transform="rotate(45 -1230.671 520.681)"></circle>
      <circle cx="15.5" cy="10.5" r=".5" fill="#34485c" transform="rotate(135 -195.824 526.681)"></circle>
      <circle cx="15.5" cy="10.5" r=".5" fill="#34485c" transform="rotate(135 -198.31 520.681)"></circle>
    </g>
  </g>
</svg>
